<?xml version="1.0" encoding="UTF-8"?>
<svg width="128px" height="128px" viewBox="0 0 128 128" version="1.1" xmlns="http://www.w3.org/2000/svg" xmlns:xlink="http://www.w3.org/1999/xlink">
    <!-- Generator: Sketch 43.2 (39069) - http://www.bohemiancoding.com/sketch -->
    <title>water-300</title>
    <desc>Created with Sketch.</desc>
    <defs></defs>
    <g id="Symbols" stroke="none" stroke-width="1" fill="none" fill-rule="evenodd">
        <g id="water-300">
            <g id="Group-5" transform="translate(21.000000, 4.000000)">
                <path d="M7,14 C-1.21423478,14 11,50 11,50 L19,116 L69,116 L75,52 C75,52 82,18.6583587 82,13 C82,10 52.0128599,15.7998285 37,16 C21.9871401,16.2001715 22,14 7,14 Z" id="Path-4" fill="#E0ECF7"></path>
                <polygon id="Rectangle" fill="#003B73" points="30 56 31 56 34 110 33 110"></polygon>
                <polygon id="Rectangle" fill="#003B73" points="55 56 56 56 53 110 52 110"></polygon>
                <path d="M6,13 C6,13 24,19 43.5,17 C63,15 81,13 81,13" id="Path-3" stroke="#003B73"></path>
                <path d="M19.4067957,120 C16.6413128,120 14.1978784,117.762654 13.9503792,115.015479 L9.46538929,54.1335621 C6.69709081,52.3343107 6.64912918,49.4039011 6.18743718,46.1011501 L0.0192634859,1.97662079 C-0.133339461,0.884963272 0.637459867,0 1.73817941,0 L83.7808985,0 C84.8935542,0 85.6784221,0.892327676 85.5442053,1.99306965 L80.1699003,46.0689599 C79.7665583,49.3768592 79.785436,52.303936 77.0670739,54.1081929 L72.5797985,115.015479 C72.3322993,117.762654 69.8888648,120 67.1233819,120 L19.4067957,120 Z M21.5247391,115 L65.5356162,115 C66.6371821,115 67.6097219,114.115564 67.7095808,113.005253 L72.2981647,50.8669255 C75.6570338,49.2060409 76.1802764,45.889072 76.5874928,42.0612377 L80.5301777,5 L5.53017766,5 L10.2650635,42.0899392 C10.7523728,45.9071953 11.3570445,49.2250491 14.7633665,50.8799998 L19.3507745,113.005253 C19.4506334,114.115564 20.4231732,115 21.5247391,115 Z" id="Combined-Shape" fill="#003B73"></path>
            </g>
        </g>
    </g>
</svg>