<?xml version="1.0" encoding="UTF-8"?>
<svg width="128px" height="128px" viewBox="0 0 128 128" version="1.1" xmlns="http://www.w3.org/2000/svg" xmlns:xlink="http://www.w3.org/1999/xlink">
    <!-- Generator: Sketch 43.2 (39069) - http://www.bohemiancoding.com/sketch -->
    <title>water-150</title>
    <desc>Created with Sketch.</desc>
    <defs></defs>
    <g id="Symbols" stroke="none" stroke-width="1" fill="none" fill-rule="evenodd">
        <g id="water-150">
            <g id="Group-3" transform="translate(16.000000, 67.000000)">
                <path d="M16,10 C16,10 24,11 43.5,13 C63,15 81,10 81,10 C81,10 84,34 77,40 C70,46 28,48 22,42 C16,36 16,10 16,10 Z" id="Path-3" stroke="#003B73" fill="#E0ECF7"></path>
                <path d="M13,0 L84,0 L84,28.999151 C84,40.0453149 75.0437748,49 64.0099452,49 L32.9900548,49 C21.9498524,49 13,40.0411488 13,28.999151 L13,0 Z M18,5 L18,27.9965303 C18,36.835446 25.1666236,44 34.0071017,44 L62.9928983,44 C71.8381653,44 79,36.8350026 79,27.9965303 L79,5 L18,5 Z M84,8 L95.0033142,8 C97.7629076,8 100,10.236038 100,12.9952534 L100,23.0047466 C100,25.7635489 97.7584215,28 95.0033142,28 L84,28 L84,8 Z M84,13 L84,23 L93.007983,23 C94.0998238,23 95,22.1047419 95,21.000385 L95,14.999615 C95,13.8874333 94.1081436,13 93.007983,13 L84,13 Z" id="Combined-Shape" fill="#003B73"></path>
                <rect id="Rectangle-4" fill="#003B73" x="0" y="52" width="96" height="5" rx="2.5"></rect>
            </g>
        </g>
    </g>
</svg>